<svg version="1" xmlns="http://www.w3.org/2000/svg" width="192" height="192" viewBox="0 0 144.000000 144.000000"><path d="M15.1 8.9c-1 .7-1.2 2-.6 5.7.5 2.7.9 5.1 1 5.4.1.3.5 1.8 1 3.5 1.2 4.5 7.6 16.5 8.9 16.6.6 0 4.6.2 8.9.4 9.9.5 13.9 1.1 20.2 3.1 5 1.6 11.3 5.6 12.8 8.1.4.7 1.2 1.3 1.6 1.3 1.3 0 .5-23.1-.9-27.5-2.9-9-10.2-14.4-22-16.3-7.8-1.2-29.2-1.4-30.9-.3zM95.3 9.6c-6.8 1.4-11 3.3-14.6 6.6-5.3 5-6.8 11.1-7.1 27.7l-.1 9.9 4.1-3.8c6.7-6.2 15.9-8.8 33.2-9.5 8.2-.3 8.4-.5 12.6-9 3.6-7.3 5.3-13.4 5.2-18.5l-.1-4.5-13.6-.1c-7.5 0-16.3.5-19.6 1.2z"/><path d="M15.3 45.5c-1.1.8-1.4 2.3-1.1 5.1.6 4.7 2.8 12.5 4 13.8.4.6.8 1.6.8 2.3 0 1.1 3.1 6.6 5.7 10.2.2.3 2.5.6 5.1.7 2.6.1 4.7.3 4.7.4 0 0 2.7.3 6 .5 5.4.4 10 1.1 10 1.5 0 .1.8.3 1.7.5 5 .9 9 3 12.7 6.5 2.2 2.1 4.2 3.6 4.4 3.2.3-.6-.1-24.1-.5-27-.1-.6-.5-1.2-1-1.2-.4 0-.7-.3-.7-.8.3-2-.3-3.4-3.2-6.6-6.6-7.6-14.1-9.5-40.3-10-3.7-.1-7.5.3-8.3.9zM113.7 44.6c-.1.1-4.2.4-9.2.7-12.2.7-18.9 3.1-24.3 8.5-2.4 2.4-4.1 4.6-3.8 4.9.3.4.1 1.1-.4 1.8-.5.6-1.2 2.9-1.6 5.1-.7 4.4-1.2 22.3-.6 24.1.2.7 1.5.1 3.2-1.7 6.6-6.7 15.1-9.2 36.4-10.4 4.2-.2 5-.7 6.5-3.2.9-1.6 2-3.2 2.4-3.5 1.5-1.1 6.7-17.8 6.7-21.4 0-1.9-.5-3.7-1.2-4.1-.9-.6-13.5-1.3-14.1-.8z"/><path d="M114.9 81.4c-.2.2-4 .7-8.4 1.1-12.6 1-14.2 1.3-19.8 4-7.2 3.4-10.2 7.4-12.4 16.5-.3 1.4-.7 28.9-.4 33.4.1 1.7.7 1.8 4.9 1.3 12.7-1.7 22.9-6.5 32.1-15.3 10.1-9.5 16.7-22 17.8-34.1.4-4.4.2-5.3-1.5-6.2-1.5-.8-2.1-.8-2.4.1-.3.8-.9.8-2.4 0-1.2-.6-2.6-.7-3.4-.2-.8.5-1.9.5-2.6 0-.6-.6-1.3-.8-1.5-.6zM14.5 83.8c-.5 1.8-.4 3.7 1 11.2.8 4.3 7.4 18 8.7 18 .4 0 .8.6.8 1.3 0 .7 3.1 4.2 6.9 7.8 9.5 9 21.5 14.7 32.1 15.2l5.4.2.1-15c.1-22.3-1.5-28.4-9.1-33.8-6-4.2-13.2-5.8-30-6.4-14.7-.5-15.2-.5-15.9 1.5z"/></svg>