<?xml version="1.0" standalone="no"?>
<!DOCTYPE svg PUBLIC "-//W3C//DTD SVG 20010904//EN"
 "http://www.w3.org/TR/2001/REC-SVG-20010904/DTD/svg10.dtd">
<svg version="1.0" xmlns="http://www.w3.org/2000/svg"
 width="147.000000pt" height="147.000000pt" viewBox="0 0 147.000000 147.000000"
 preserveAspectRatio="xMidYMid meet">
<metadata>
Created by potrace 1.11, written by Peter Selinger 2001-2013
</metadata>
<g transform="translate(0.000000,147.000000) scale(0.100000,-0.100000)"
fill="#000000" stroke="none">
<path d="M153 1378 c-25 -29 13 -173 71 -272 24 -41 31 -46 64 -47 203 -3 332
-41 400 -117 l23 -26 -2 124 c-2 137 -14 193 -54 245 -52 69 -135 94 -340 102
-124 5 -153 3 -162 -9z"/>
<path d="M1001 1378 c-81 -11 -164 -50 -195 -91 -39 -53 -48 -95 -52 -236 l-3
-134 37 35 c76 74 183 103 379 107 39 1 45 5 70 44 55 86 100 260 71 278 -16
11 -220 9 -307 -3z"/>
<path d="M149 998 c-14 -25 14 -145 50 -220 49 -100 49 -100 138 -104 181 -7
273 -36 342 -106 l33 -33 -4 145 c-3 125 -7 151 -26 187 -57 110 -149 143
-408 147 -102 2 -116 0 -125 -16z"/>
<path d="M1117 1014 c-1 -1 -33 -4 -72 -7 -147 -13 -229 -58 -268 -147 -17
-37 -21 -70 -23 -184 l-2 -138 36 35 c72 68 153 92 339 102 60 3 80 8 91 22
25 32 71 137 87 198 18 72 19 101 3 112 -10 6 -184 13 -191 7z"/>
<path d="M153 622 c-21 -21 -2 -118 42 -218 80 -180 271 -321 462 -340 l54 -6
-1 178 c-2 148 -5 187 -21 228 -47 123 -147 163 -428 169 -69 2 -98 -1 -108
-11z"/>
<path d="M1167 634 c-1 -1 -42 -4 -92 -8 -143 -9 -218 -36 -268 -96 -42 -49
-51 -100 -53 -294 l-2 -178 52 6 c262 30 480 248 513 512 4 34 2 45 -11 50
-13 5 -134 12 -139 8z"/>
</g>
</svg>
